<?xml version="1.0" standalone="no"?>
<!DOCTYPE svg PUBLIC "-//W3C//DTD SVG 20010904//EN"
 "http://www.w3.org/TR/2001/REC-SVG-20010904/DTD/svg10.dtd">
<svg version="1.0" xmlns="http://www.w3.org/2000/svg"
 width="32.000000pt" height="32.000000pt" viewBox="0 0 32.000000 32.000000"
 preserveAspectRatio="xMidYMid meet">

<g transform="translate(0.000000,32.000000) scale(0.100000,-0.100000)"
fill="#000000" stroke="none">
<path d="M105 305 c-140 -50 -131 -256 13 -295 144 -38 254 124 167 248 -35
48 -117 70 -180 47z m95 -76 c0 -7 -8 -18 -17 -25 -17 -13 -17 -13 0 -14 21 0
23 -30 2 -30 -11 0 -15 -11 -15 -40 0 -29 -4 -40 -15 -40 -11 0 -15 11 -15 40
0 22 -4 40 -10 40 -5 0 -10 7 -10 15 0 8 5 15 10 15 6 0 10 8 10 18 0 10 3 22
7 25 11 12 53 8 53 -4z"/>
</g>
</svg>
