<?xml version="1.0" standalone="no"?>
<!DOCTYPE svg PUBLIC "-//W3C//DTD SVG 20010904//EN"
 "http://www.w3.org/TR/2001/REC-SVG-20010904/DTD/svg10.dtd">
<svg version="1.0" xmlns="http://www.w3.org/2000/svg"
 width="128.000000pt" height="128.000000pt" viewBox="0 0 128.000000 128.000000"
 preserveAspectRatio="xMidYMid meet">

<g transform="translate(0.000000,128.000000) scale(0.100000,-0.100000)"
fill="#000000" stroke="none">
<path d="M485 303 c-135 -3 -162 -6 -173 -20 -7 -11 -12 -52 -12 -114 l0 -98
-26 -3 c-38 -4 -55 -35 -30 -54 17 -12 84 -14 400 -14 210 0 387 4 394 9 8 4
12 19 10 32 -2 19 -10 25 -35 27 l-33 3 0 102 c0 56 -4 109 -10 117 -10 16
-170 20 -485 13z"/>
</g>
</svg>
