<?xml version="1.0" standalone="no"?>
<!DOCTYPE svg PUBLIC "-//W3C//DTD SVG 20010904//EN"
 "http://www.w3.org/TR/2001/REC-SVG-20010904/DTD/svg10.dtd">
<svg version="1.0" xmlns="http://www.w3.org/2000/svg"
 width="32.000000pt" height="32.000000pt" viewBox="0 0 32.000000 32.000000"
 preserveAspectRatio="xMidYMid meet">

<g transform="translate(0.000000,32.000000) scale(0.100000,-0.100000)"
fill="#000000" stroke="none">
<path d="M113 309 c-44 -13 -90 -62 -103 -110 -22 -80 29 -167 111 -189 112
-31 220 77 189 189 -13 50 -60 97 -108 111 -43 11 -46 11 -89 -1z m7 -84 c0
-8 -7 -15 -15 -15 -8 0 -15 7 -15 15 0 8 7 15 15 15 8 0 15 -7 15 -15z m108
-27 c18 -18 16 -98 -2 -98 -9 0 -16 12 -18 33 -2 20 -8 32 -18 32 -10 0 -16
-12 -18 -32 -2 -21 -9 -33 -18 -33 -10 0 -14 13 -14 51 0 45 2 51 19 46 10 -2
25 -1 32 4 18 12 23 11 37 -3z m-108 -48 c0 -38 -4 -50 -15 -50 -11 0 -15 12
-15 50 0 38 4 50 15 50 11 0 15 -12 15 -50z"/>
</g>
</svg>
