<?xml version="1.0" standalone="no"?>
<!DOCTYPE svg PUBLIC "-//W3C//DTD SVG 20010904//EN"
 "http://www.w3.org/TR/2001/REC-SVG-20010904/DTD/svg10.dtd">
<svg version="1.0" xmlns="http://www.w3.org/2000/svg"
 width="552.000000pt" height="88.000000pt" viewBox="0 0 552.000000 88.000000"
 preserveAspectRatio="xMidYMid meet">

<g transform="translate(0.000000,88.000000) scale(0.100000,-0.100000)"
fill="#000000" stroke="none">
<path d="M109 857 c-24 -13 -57 -43 -74 -66 l-30 -43 0 -307 0 -308 29 -41
c18 -26 47 -51 79 -67 51 -25 52 -25 316 -25 164 0 281 4 306 11 52 15 119 82
134 134 7 25 11 141 11 305 0 294 -4 314 -68 375 -54 50 -74 53 -378 54 -275
1 -282 1 -325 -22z m641 -43 c19 -11 45 -35 57 -54 23 -32 23 -39 23 -319 0
-268 -1 -288 -20 -319 -11 -18 -34 -41 -52 -52 -31 -19 -51 -20 -316 -20 -315
0 -319 1 -369 67 l-28 36 -3 251 c-2 138 -1 270 3 294 8 52 62 117 109 131 17
6 150 9 296 8 247 -2 267 -3 300 -23z"/>
<path d="M239 656 c2 -44 10 -94 18 -109 13 -27 13 -31 -16 -75 -24 -37 -27
-48 -16 -50 27 -6 81 18 123 53 22 19 42 35 45 35 3 0 43 -69 88 -152 46 -84
95 -165 110 -180 25 -26 74 -46 85 -35 10 9 -226 522 -249 540 -23 18 -98 42
-157 50 l-35 5 4 -82z"/>
<path d="M376 462 c-3 -5 -28 -62 -56 -127 -51 -119 -60 -164 -37 -183 10 -9
28 13 80 102 37 63 67 119 67 124 0 19 -48 94 -54 84z"/>
<path d="M2535 646 c-72 -32 -115 -111 -115 -208 0 -72 23 -129 66 -170 102
-95 286 -44 324 90 34 124 -16 255 -113 291 -39 15 -126 13 -162 -3z m121
-107 c15 -17 19 -36 19 -100 0 -67 -3 -82 -22 -100 -27 -27 -65 -20 -81 16
-15 33 -15 140 -1 168 23 43 55 49 85 16z"/>
<path d="M4455 646 c-93 -42 -138 -167 -104 -289 15 -55 72 -114 122 -128 48
-13 111 -5 146 18 22 14 25 14 33 -1 6 -10 22 -16 44 -16 l35 0 -3 118 -3 117
-95 0 -95 0 -3 -47 -3 -48 35 0 c42 0 46 -13 11 -36 -21 -14 -31 -15 -51 -6
-31 15 -44 49 -44 120 0 75 16 106 57 110 27 3 34 -2 48 -27 13 -26 21 -31 53
-31 85 0 100 20 59 81 -38 57 -81 79 -151 79 -34 -1 -74 -7 -91 -14z"/>
<path d="M5235 646 c-50 -22 -77 -60 -83 -114 -6 -72 25 -104 134 -137 89 -28
103 -37 84 -60 -20 -24 -68 -18 -97 11 -23 23 -31 25 -72 19 -68 -9 -76 -16
-58 -51 32 -62 95 -94 184 -94 121 1 205 78 186 171 -10 49 -45 76 -137 104
-91 28 -100 33 -86 55 12 19 72 15 90 -8 14 -17 19 -18 68 -4 28 8 52 19 52
24 0 21 -41 66 -74 82 -41 20 -149 21 -191 2z"/>
<path d="M1000 643 c0 -3 29 -57 65 -118 l65 -112 0 -92 0 -91 70 0 70 0 0 96
0 97 60 109 c33 60 60 111 60 113 0 3 -26 5 -58 5 l-58 0 -29 -60 c-16 -33
-32 -60 -35 -60 -4 0 -22 27 -39 60 l-32 60 -70 0 c-38 0 -69 -3 -69 -7z"/>
<path d="M1400 440 l0 -210 160 0 160 0 0 50 0 50 -95 0 -95 0 0 35 0 35 80 0
80 0 0 45 0 45 -80 0 -80 0 0 30 0 30 95 0 95 0 0 50 0 50 -160 0 -160 0 0
-210z"/>
<path d="M1780 440 l0 -210 150 0 150 0 0 50 0 50 -85 0 -85 0 0 160 0 160
-65 0 -65 0 0 -210z"/>
<path d="M2110 440 l0 -210 151 0 150 0 -3 47 -3 48 -82 3 -83 3 0 159 0 160
-65 0 -65 0 0 -210z"/>
<path d="M2833 637 c6 -16 107 -395 107 -402 0 -3 27 -5 60 -5 l59 0 10 38 c6
20 17 70 26 110 9 39 18 72 20 72 2 0 11 -33 20 -72 9 -40 20 -90 26 -110 l10
-38 57 0 58 0 22 83 c12 45 37 139 56 210 l34 127 -53 0 -53 0 -28 -117 -27
-118 -30 118 -29 117 -54 0 c-61 0 -52 15 -90 -154 l-18 -79 -22 89 c-12 49
-25 101 -28 117 -6 26 -9 27 -72 27 -49 0 -65 -3 -61 -13z"/>
<path d="M3610 441 l0 -211 70 0 70 0 0 75 0 75 53 0 c92 1 160 47 167 115 6
52 -2 77 -34 113 l-34 37 -146 3 -146 3 0 -210z m215 74 c0 -27 -3 -30 -37
-33 -38 -3 -38 -3 -38 33 0 36 0 36 38 33 34 -3 37 -6 37 -33z"/>
<path d="M3996 458 c-32 -106 -61 -201 -64 -210 -4 -16 3 -18 50 -18 l54 0 10
38 c9 37 9 37 66 40 l57 3 12 -41 12 -40 70 0 c51 0 68 3 64 13 -3 10 -57 178
-118 375 l-11 32 -71 0 -72 0 -59 -192z m142 -44 c-4 -3 -17 -4 -30 -2 -24 3
-24 3 -9 53 l14 50 15 -47 c9 -27 13 -50 10 -54z"/>
<path d="M4770 440 l0 -210 165 0 165 0 0 50 0 50 -100 0 -100 0 0 35 0 35 80
0 80 0 0 45 0 45 -80 0 -80 0 0 30 0 30 100 0 100 0 0 50 0 50 -165 0 -165 0
0 -210z"/>
</g>
</svg>
